<?xml version="1.0" encoding="UTF-8" standalone="no"?>
<!DOCTYPE svg PUBLIC "-//W3C//DTD SVG 1.1//EN"
 "http://www.w3.org/Graphics/SVG/1.1/DTD/svg11.dtd">
<!-- Generated by graphviz version 2.42.4 (0)
 -->
<!-- Title: G Pages: 1 -->
<svg width="1077pt" height="361pt"
 viewBox="0.00 0.00 1077.40 360.90" xmlns="http://www.w3.org/2000/svg" xmlns:xlink="http://www.w3.org/1999/xlink">
<g id="graph0" class="graph" transform="scale(1 1) rotate(0) translate(25.2 335.7)">
<title>G</title>
<polygon fill="white" stroke="transparent" points="-25.2,25.2 -25.2,-335.7 1052.2,-335.7 1052.2,25.2 -25.2,25.2"/>
<text text-anchor="middle" x="513.5" y="-288.9" font-family="Helvetica,sans-Serif" font-weight="bold" font-size="22.00">Diagrama Entidade&#45;Relacionamento &#45; FreelanceFlow</text>
<!-- clients -->
<g id="node1" class="node">
<title>clients</title>
<polygon fill="#2b5c7a" stroke="transparent" points="1.5,-135 1.5,-156 186.5,-156 186.5,-135 1.5,-135"/>
<polygon fill="none" stroke="#2b5c7a" points="1.5,-135 1.5,-156 186.5,-156 186.5,-135 1.5,-135"/>
<text text-anchor="start" x="68" y="-142.8" font-family="Helvetica,sans-Serif" font-weight="bold" font-size="14.00" fill="white">clients</text>
<polygon fill="none" stroke="#2b5c7a" points="1.5,-114 1.5,-135 29.5,-135 29.5,-114 1.5,-114"/>
<text text-anchor="start" x="4.5" y="-121.8" font-family="Helvetica,sans-Serif" font-weight="bold" font-size="14.00">PK</text>
<polygon fill="none" stroke="#2b5c7a" points="29.5,-114 29.5,-135 186.5,-135 186.5,-114 29.5,-114"/>
<text text-anchor="start" x="32.5" y="-120.8" font-family="Helvetica,sans-Serif" font-size="14.00">id uuid</text>
<polygon fill="none" stroke="#2b5c7a" points="1.5,-93 1.5,-114 29.5,-114 29.5,-93 1.5,-93"/>
<polygon fill="none" stroke="#2b5c7a" points="29.5,-93 29.5,-114 186.5,-114 186.5,-93 29.5,-93"/>
<text text-anchor="start" x="32.5" y="-99.8" font-family="Helvetica,sans-Serif" font-size="14.00">name varchar(150)</text>
<polygon fill="none" stroke="#2b5c7a" points="1.5,-72 1.5,-93 29.5,-93 29.5,-72 1.5,-72"/>
<polygon fill="none" stroke="#2b5c7a" points="29.5,-72 29.5,-93 186.5,-93 186.5,-72 29.5,-72"/>
<text text-anchor="start" x="32.5" y="-78.8" font-family="Helvetica,sans-Serif" font-size="14.00">email varchar(150)</text>
<polygon fill="none" stroke="#2b5c7a" points="1.5,-51 1.5,-72 29.5,-72 29.5,-51 1.5,-51"/>
<polygon fill="none" stroke="#2b5c7a" points="29.5,-51 29.5,-72 186.5,-72 186.5,-51 29.5,-51"/>
<text text-anchor="start" x="32.5" y="-57.8" font-family="Helvetica,sans-Serif" font-size="14.00">phone varchar(30)</text>
<polygon fill="none" stroke="#2b5c7a" points="1.5,-30 1.5,-51 29.5,-51 29.5,-30 1.5,-30"/>
<polygon fill="none" stroke="#2b5c7a" points="29.5,-30 29.5,-51 186.5,-51 186.5,-30 29.5,-30"/>
<text text-anchor="start" x="32.5" y="-36.8" font-family="Helvetica,sans-Serif" font-size="14.00">created_at timestamp</text>
<polygon fill="none" stroke="#2b5c7a" points="0,-29 0,-157 187,-157 187,-29 0,-29"/>
</g>
<!-- projects -->
<g id="node2" class="node">
<title>projects</title>
<polygon fill="#2b5c7a" stroke="transparent" points="263,-135 263,-156 431,-156 431,-135 263,-135"/>
<polygon fill="none" stroke="#2b5c7a" points="263,-135 263,-156 431,-156 431,-135 263,-135"/>
<text text-anchor="start" x="315" y="-142.8" font-family="Helvetica,sans-Serif" font-weight="bold" font-size="14.00" fill="white">projects</text>
<polygon fill="none" stroke="#2b5c7a" points="263,-114 263,-135 291,-135 291,-114 263,-114"/>
<text text-anchor="start" x="266" y="-121.8" font-family="Helvetica,sans-Serif" font-weight="bold" font-size="14.00">PK</text>
<polygon fill="none" stroke="#2b5c7a" points="291,-114 291,-135 431,-135 431,-114 291,-114"/>
<text text-anchor="start" x="294" y="-120.8" font-family="Helvetica,sans-Serif" font-size="14.00">id uuid</text>
<polygon fill="none" stroke="#2b5c7a" points="263,-93 263,-114 291,-114 291,-93 263,-93"/>
<polygon fill="none" stroke="#2b5c7a" points="291,-93 291,-114 431,-114 431,-93 291,-93"/>
<text text-anchor="start" x="294" y="-99.8" font-family="Helvetica,sans-Serif" font-size="14.00">name varchar(150)</text>
<polygon fill="none" stroke="#2b5c7a" points="263,-72 263,-93 291,-93 291,-72 263,-72"/>
<polygon fill="none" stroke="#2b5c7a" points="291,-72 291,-93 431,-93 431,-72 291,-72"/>
<text text-anchor="start" x="294" y="-78.8" font-family="Helvetica,sans-Serif" font-size="14.00">description text</text>
<polygon fill="none" stroke="#2b5c7a" points="263,-51 263,-72 291,-72 291,-51 263,-51"/>
<polygon fill="none" stroke="#2b5c7a" points="291,-51 291,-72 431,-72 431,-51 291,-51"/>
<text text-anchor="start" x="294" y="-57.8" font-family="Helvetica,sans-Serif" font-size="14.00">status varchar(50)</text>
<polygon fill="none" stroke="#2b5c7a" points="263,-30 263,-51 291,-51 291,-30 263,-30"/>
<text text-anchor="start" x="266.5" y="-37.8" font-family="Helvetica,sans-Serif" font-weight="bold" font-size="14.00">FK</text>
<polygon fill="none" stroke="#2b5c7a" points="291,-30 291,-51 431,-51 431,-30 291,-30"/>
<text text-anchor="start" x="294" y="-36.8" font-family="Helvetica,sans-Serif" font-size="14.00">client_id uuid</text>
<polygon fill="none" stroke="#2b5c7a" points="262,-29 262,-157 432,-157 432,-29 262,-29"/>
</g>
<!-- clients&#45;&gt;projects -->
<g id="edge1" class="edge">
<title>clients&#45;&gt;projects</title>
<path fill="none" stroke="#4b6070" d="M187.08,-93C208.14,-93 230.54,-93 251.68,-93"/>
<polygon fill="#4b6070" stroke="#4b6070" points="251.94,-93 261.94,-97.5 256.94,-93 261.94,-93 261.94,-93 261.94,-93 256.94,-93 261.94,-88.5 251.94,-93 251.94,-93"/>
<text text-anchor="middle" x="224.5" y="-96" font-family="Helvetica,sans-Serif" font-size="10.00">1:N</text>
</g>
<!-- activities -->
<g id="node3" class="node">
<title>activities</title>
<polygon fill="#2b5c7a" stroke="transparent" points="508,-256 508,-277 714,-277 714,-256 508,-256"/>
<polygon fill="none" stroke="#2b5c7a" points="508,-256 508,-277 714,-277 714,-256 508,-256"/>
<text text-anchor="start" x="574.5" y="-263.8" font-family="Helvetica,sans-Serif" font-weight="bold" font-size="14.00" fill="white">activities</text>
<polygon fill="none" stroke="#2b5c7a" points="508,-235 508,-256 536,-256 536,-235 508,-235"/>
<text text-anchor="start" x="511" y="-242.8" font-family="Helvetica,sans-Serif" font-weight="bold" font-size="14.00">PK</text>
<polygon fill="none" stroke="#2b5c7a" points="536,-235 536,-256 714,-256 714,-235 536,-235"/>
<text text-anchor="start" x="539" y="-241.8" font-family="Helvetica,sans-Serif" font-size="14.00">id uuid</text>
<polygon fill="none" stroke="#2b5c7a" points="508,-214 508,-235 536,-235 536,-214 508,-214"/>
<polygon fill="none" stroke="#2b5c7a" points="536,-214 536,-235 714,-235 714,-214 536,-214"/>
<text text-anchor="start" x="539" y="-220.8" font-family="Helvetica,sans-Serif" font-size="14.00">description varchar(255)</text>
<polygon fill="none" stroke="#2b5c7a" points="508,-193 508,-214 536,-214 536,-193 508,-193"/>
<polygon fill="none" stroke="#2b5c7a" points="536,-193 536,-214 714,-214 714,-193 536,-193"/>
<text text-anchor="start" x="539" y="-199.8" font-family="Helvetica,sans-Serif" font-size="14.00">status varchar(50)</text>
<polygon fill="none" stroke="#2b5c7a" points="508,-172 508,-193 536,-193 536,-172 508,-172"/>
<text text-anchor="start" x="511.5" y="-179.8" font-family="Helvetica,sans-Serif" font-weight="bold" font-size="14.00">FK</text>
<polygon fill="none" stroke="#2b5c7a" points="536,-172 536,-193 714,-193 714,-172 536,-172"/>
<text text-anchor="start" x="539" y="-178.8" font-family="Helvetica,sans-Serif" font-size="14.00">project_id uuid</text>
<polygon fill="none" stroke="#2b5c7a" points="507,-171.5 507,-278.5 715,-278.5 715,-171.5 507,-171.5"/>
</g>
<!-- projects&#45;&gt;activities -->
<g id="edge2" class="edge">
<title>projects&#45;&gt;activities</title>
<path fill="none" stroke="#4b6070" d="M432.34,-135.49C453.11,-145.96 475.69,-157.33 497.56,-168.35"/>
<polygon fill="#4b6070" stroke="#4b6070" points="497.62,-168.38 504.53,-176.9 502.09,-170.63 506.55,-172.88 506.55,-172.88 506.55,-172.88 502.09,-170.63 508.58,-168.86 497.62,-168.38 497.62,-168.38"/>
<text text-anchor="middle" x="469.5" y="-159" font-family="Helvetica,sans-Serif" font-size="10.00">1:N</text>
</g>
<!-- payments -->
<g id="node5" class="node">
<title>payments</title>
<polygon fill="#2b5c7a" stroke="transparent" points="523,-106 523,-127 699,-127 699,-106 523,-106"/>
<polygon fill="none" stroke="#2b5c7a" points="523,-106 523,-127 699,-127 699,-106 523,-106"/>
<text text-anchor="start" x="572.5" y="-113.8" font-family="Helvetica,sans-Serif" font-weight="bold" font-size="14.00" fill="white">payments</text>
<polygon fill="none" stroke="#2b5c7a" points="523,-85 523,-106 551,-106 551,-85 523,-85"/>
<text text-anchor="start" x="526" y="-92.8" font-family="Helvetica,sans-Serif" font-weight="bold" font-size="14.00">PK</text>
<polygon fill="none" stroke="#2b5c7a" points="551,-85 551,-106 699,-106 699,-85 551,-85"/>
<text text-anchor="start" x="554" y="-91.8" font-family="Helvetica,sans-Serif" font-size="14.00">id uuid</text>
<polygon fill="none" stroke="#2b5c7a" points="523,-64 523,-85 551,-85 551,-64 523,-64"/>
<polygon fill="none" stroke="#2b5c7a" points="551,-64 551,-85 699,-85 699,-64 551,-64"/>
<text text-anchor="start" x="554" y="-70.8" font-family="Helvetica,sans-Serif" font-size="14.00">value numeric(10,2)</text>
<polygon fill="none" stroke="#2b5c7a" points="523,-43 523,-64 551,-64 551,-43 523,-43"/>
<polygon fill="none" stroke="#2b5c7a" points="551,-43 551,-64 699,-64 699,-43 551,-43"/>
<text text-anchor="start" x="554" y="-49.8" font-family="Helvetica,sans-Serif" font-size="14.00">method varchar(30)</text>
<polygon fill="none" stroke="#2b5c7a" points="523,-22 523,-43 551,-43 551,-22 523,-22"/>
<polygon fill="none" stroke="#2b5c7a" points="551,-22 551,-43 699,-43 699,-22 551,-22"/>
<text text-anchor="start" x="554" y="-28.8" font-family="Helvetica,sans-Serif" font-size="14.00">status varchar(50)</text>
<polygon fill="none" stroke="#2b5c7a" points="523,-1 523,-22 551,-22 551,-1 523,-1"/>
<text text-anchor="start" x="526.5" y="-8.8" font-family="Helvetica,sans-Serif" font-weight="bold" font-size="14.00">FK</text>
<polygon fill="none" stroke="#2b5c7a" points="551,-1 551,-22 699,-22 699,-1 551,-1"/>
<text text-anchor="start" x="554" y="-7.8" font-family="Helvetica,sans-Serif" font-size="14.00">project_id uuid</text>
<polygon fill="none" stroke="#2b5c7a" points="522,0 522,-128 700,-128 700,0 522,0"/>
</g>
<!-- projects&#45;&gt;payments -->
<g id="edge4" class="edge">
<title>projects&#45;&gt;payments</title>
<path fill="none" stroke="#4b6070" d="M432.34,-83.66C457.56,-80.87 485.44,-77.79 511.49,-74.9"/>
<polygon fill="#4b6070" stroke="#4b6070" points="511.82,-74.87 522.25,-78.24 516.79,-74.32 521.76,-73.77 521.76,-73.77 521.76,-73.77 516.79,-74.32 521.26,-69.29 511.82,-74.87 511.82,-74.87"/>
<text text-anchor="middle" x="469.5" y="-84" font-family="Helvetica,sans-Serif" font-size="10.00">1:N</text>
</g>
<!-- hours -->
<g id="node4" class="node">
<title>hours</title>
<polygon fill="#2b5c7a" stroke="transparent" points="791.5,-256 791.5,-277 1026.5,-277 1026.5,-256 791.5,-256"/>
<polygon fill="none" stroke="#2b5c7a" points="791.5,-256 791.5,-277 1026.5,-277 1026.5,-256 791.5,-256"/>
<text text-anchor="start" x="859.5" y="-263.8" font-family="Helvetica,sans-Serif" font-weight="bold" font-size="14.00" fill="white">hour_entries</text>
<polygon fill="none" stroke="#2b5c7a" points="791.5,-235 791.5,-256 819.5,-256 819.5,-235 791.5,-235"/>
<text text-anchor="start" x="794.5" y="-242.8" font-family="Helvetica,sans-Serif" font-weight="bold" font-size="14.00">PK</text>
<polygon fill="none" stroke="#2b5c7a" points="819.5,-235 819.5,-256 1026.5,-256 1026.5,-235 819.5,-235"/>
<text text-anchor="start" x="822.5" y="-241.8" font-family="Helvetica,sans-Serif" font-size="14.00">id uuid</text>
<polygon fill="none" stroke="#2b5c7a" points="791.5,-214 791.5,-235 819.5,-235 819.5,-214 791.5,-214"/>
<polygon fill="none" stroke="#2b5c7a" points="819.5,-214 819.5,-235 1026.5,-235 1026.5,-214 819.5,-214"/>
<text text-anchor="start" x="822.5" y="-220.8" font-family="Helvetica,sans-Serif" font-size="14.00">worked_hours numeric(10,2)</text>
<polygon fill="none" stroke="#2b5c7a" points="791.5,-193 791.5,-214 819.5,-214 819.5,-193 791.5,-193"/>
<text text-anchor="start" x="795" y="-200.8" font-family="Helvetica,sans-Serif" font-weight="bold" font-size="14.00">FK</text>
<polygon fill="none" stroke="#2b5c7a" points="819.5,-193 819.5,-214 1026.5,-214 1026.5,-193 819.5,-193"/>
<text text-anchor="start" x="822.5" y="-199.8" font-family="Helvetica,sans-Serif" font-size="14.00">activity_id uuid</text>
<polygon fill="none" stroke="#2b5c7a" points="791.5,-172 791.5,-193 819.5,-193 819.5,-172 791.5,-172"/>
<polygon fill="none" stroke="#2b5c7a" points="819.5,-172 819.5,-193 1026.5,-193 1026.5,-172 819.5,-172"/>
<text text-anchor="start" x="822.5" y="-178.8" font-family="Helvetica,sans-Serif" font-size="14.00">created_at timestamp</text>
<polygon fill="none" stroke="#2b5c7a" points="790,-171.5 790,-278.5 1027,-278.5 1027,-171.5 790,-171.5"/>
</g>
<!-- activities&#45;&gt;hours -->
<g id="edge3" class="edge">
<title>activities&#45;&gt;hours</title>
<path fill="none" stroke="#4b6070" d="M715.35,-225C736.11,-225 758.16,-225 779.64,-225"/>
<polygon fill="#4b6070" stroke="#4b6070" points="779.8,-225 789.8,-229.5 784.8,-225 789.8,-225 789.8,-225 789.8,-225 784.8,-225 789.8,-220.5 779.8,-225 779.8,-225"/>
<text text-anchor="middle" x="752.5" y="-228" font-family="Helvetica,sans-Serif" font-size="10.00">1:N</text>
</g>
</g>
</svg>
