<?xml version="1.0" encoding="UTF-8" standalone="no"?>
<!DOCTYPE svg PUBLIC "-//W3C//DTD SVG 1.1//EN"
 "http://www.w3.org/Graphics/SVG/1.1/DTD/svg11.dtd">
<!-- Generated by graphviz version 2.42.4 (0)
 -->
<!-- Title: G Pages: 1 -->
<svg width="598pt" height="645pt"
 viewBox="0.00 0.00 598.40 645.40" xmlns="http://www.w3.org/2000/svg" xmlns:xlink="http://www.w3.org/1999/xlink">
<g id="graph0" class="graph" transform="scale(1 1) rotate(0) translate(25.2 620.2)">
<title>G</title>
<polygon fill="white" stroke="transparent" points="-25.2,25.2 -25.2,-620.2 573.2,-620.2 573.2,25.2 -25.2,25.2"/>
<text text-anchor="middle" x="274" y="-573.4" font-family="Helvetica,sans-Serif" font-weight="bold" font-size="22.00">Diagrama de Casos de Uso &#45; FreelanceFlow</text>
<g id="clust1" class="cluster">
<title>cluster_system</title>
<path fill="#f3f7fa" stroke="#9bb7cc" d="M253.5,-8C253.5,-8 426.5,-8 426.5,-8 432.5,-8 438.5,-14 438.5,-20 438.5,-20 438.5,-543 438.5,-543 438.5,-549 432.5,-555 426.5,-555 426.5,-555 253.5,-555 253.5,-555 247.5,-555 241.5,-549 241.5,-543 241.5,-543 241.5,-20 241.5,-20 241.5,-14 247.5,-8 253.5,-8"/>
<text text-anchor="middle" x="340" y="-539.8" font-family="Helvetica,sans-Serif" font-weight="bold" font-size="14.00">Sistema FreelanceFlow</text>
</g>
<!-- Freelancer -->
<g id="node1" class="node">
<title>Freelancer</title>
<text text-anchor="start" x="138.5" y="-271" font-family="Helvetica,sans-Serif" font-size="30.00">☻</text>
<text text-anchor="start" x="121.5" y="-248.2" font-family="Helvetica,sans-Serif" font-weight="bold" font-size="11.00">Freelancer</text>
</g>
<!-- UC01 -->
<g id="node2" class="node">
<title>UC01</title>
<ellipse fill="#ffffff" stroke="#2f6f9f" cx="339.5" cy="-501" rx="50.41" ry="22.76"/>
<text text-anchor="middle" x="339.5" y="-504.2" font-family="Helvetica,sans-Serif" font-size="11.00">Cadastrar</text>
<text text-anchor="middle" x="339.5" y="-492.2" font-family="Helvetica,sans-Serif" font-size="11.00">Cliente</text>
</g>
<!-- Freelancer&#45;&gt;UC01 -->
<g id="edge1" class="edge">
<title>Freelancer&#45;&gt;UC01</title>
<path fill="none" stroke="#4b6070" d="M162.2,-303.52C172.33,-346.02 195.47,-419.04 241.5,-463 253.3,-474.27 268.83,-482.32 284,-488.02"/>
<polygon fill="#4b6070" stroke="#4b6070" points="283.28,-491.47 293.87,-491.43 285.57,-484.85 283.28,-491.47"/>
</g>
<!-- UC02 -->
<g id="node3" class="node">
<title>UC02</title>
<ellipse fill="#ffffff" stroke="#2f6f9f" cx="339.5" cy="-424" rx="50.41" ry="22.76"/>
<text text-anchor="middle" x="339.5" y="-427.2" font-family="Helvetica,sans-Serif" font-size="11.00">Cadastrar</text>
<text text-anchor="middle" x="339.5" y="-415.2" font-family="Helvetica,sans-Serif" font-size="11.00">Projeto</text>
</g>
<!-- Freelancer&#45;&gt;UC02 -->
<g id="edge2" class="edge">
<title>Freelancer&#45;&gt;UC02</title>
<path fill="none" stroke="#4b6070" d="M173.38,-303.53C188.54,-329.16 212.43,-363.76 241.5,-386 254.46,-395.92 270.33,-403.56 285.46,-409.31"/>
<polygon fill="#4b6070" stroke="#4b6070" points="284.66,-412.74 295.25,-412.82 287.02,-406.15 284.66,-412.74"/>
</g>
<!-- UC03 -->
<g id="node4" class="node">
<title>UC03</title>
<ellipse fill="#ffffff" stroke="#2f6f9f" cx="339.5" cy="-347" rx="50.41" ry="22.76"/>
<text text-anchor="middle" x="339.5" y="-350.2" font-family="Helvetica,sans-Serif" font-size="11.00">Cadastrar</text>
<text text-anchor="middle" x="339.5" y="-338.2" font-family="Helvetica,sans-Serif" font-size="11.00">Atividade</text>
</g>
<!-- Freelancer&#45;&gt;UC03 -->
<g id="edge3" class="edge">
<title>Freelancer&#45;&gt;UC03</title>
<path fill="none" stroke="#4b6070" d="M199.94,-290.69C213.24,-296.74 227.9,-303.26 241.5,-309 257.5,-315.76 275.16,-322.8 290.96,-328.95"/>
<polygon fill="#4b6070" stroke="#4b6070" points="289.95,-332.31 300.54,-332.66 292.48,-325.78 289.95,-332.31"/>
</g>
<!-- UC04 -->
<g id="node5" class="node">
<title>UC04</title>
<ellipse fill="#ffffff" stroke="#2f6f9f" cx="339.5" cy="-270" rx="47.25" ry="22.76"/>
<text text-anchor="middle" x="339.5" y="-273.2" font-family="Helvetica,sans-Serif" font-size="11.00">Registrar</text>
<text text-anchor="middle" x="339.5" y="-261.2" font-family="Helvetica,sans-Serif" font-size="11.00">Horas</text>
</g>
<!-- Freelancer&#45;&gt;UC04 -->
<g id="edge4" class="edge">
<title>Freelancer&#45;&gt;UC04</title>
<path fill="none" stroke="#4b6070" d="M199.8,-270C224.45,-270 255.4,-270 281.8,-270"/>
<polygon fill="#4b6070" stroke="#4b6070" points="282.05,-273.5 292.05,-270 282.05,-266.5 282.05,-273.5"/>
</g>
<!-- UC05 -->
<g id="node6" class="node">
<title>UC05</title>
<ellipse fill="#ffffff" stroke="#2f6f9f" cx="339.5" cy="-193" rx="70.01" ry="22.76"/>
<text text-anchor="middle" x="339.5" y="-196.2" font-family="Helvetica,sans-Serif" font-size="11.00">Registrar</text>
<text text-anchor="middle" x="339.5" y="-184.2" font-family="Helvetica,sans-Serif" font-size="11.00">Pagamento PIX</text>
</g>
<!-- Freelancer&#45;&gt;UC05 -->
<g id="edge5" class="edge">
<title>Freelancer&#45;&gt;UC05</title>
<path fill="none" stroke="#4b6070" d="M199.94,-249.31C213.24,-243.26 227.9,-236.74 241.5,-231 255.17,-225.23 270.04,-219.25 283.95,-213.79"/>
<polygon fill="#4b6070" stroke="#4b6070" points="285.34,-217 293.39,-210.11 282.8,-210.48 285.34,-217"/>
</g>
<!-- UC06 -->
<g id="node7" class="node">
<title>UC06</title>
<ellipse fill="#ffffff" stroke="#2f6f9f" cx="339.5" cy="-116" rx="50.82" ry="22.76"/>
<text text-anchor="middle" x="339.5" y="-119.2" font-family="Helvetica,sans-Serif" font-size="11.00">Consultar</text>
<text text-anchor="middle" x="339.5" y="-107.2" font-family="Helvetica,sans-Serif" font-size="11.00">Relatórios</text>
</g>
<!-- Freelancer&#45;&gt;UC06 -->
<g id="edge6" class="edge">
<title>Freelancer&#45;&gt;UC06</title>
<path fill="none" stroke="#4b6070" d="M173.38,-236.47C188.54,-210.84 212.43,-176.24 241.5,-154 254.34,-144.17 270.05,-136.57 285.05,-130.85"/>
<polygon fill="#4b6070" stroke="#4b6070" points="286.54,-134.03 294.77,-127.35 284.17,-127.44 286.54,-134.03"/>
</g>
<!-- UC07 -->
<g id="node8" class="node">
<title>UC07</title>
<ellipse fill="#ffffff" stroke="#2f6f9f" cx="339.5" cy="-39" rx="60.62" ry="22.76"/>
<text text-anchor="middle" x="339.5" y="-42.2" font-family="Helvetica,sans-Serif" font-size="11.00">Acompanhar</text>
<text text-anchor="middle" x="339.5" y="-30.2" font-family="Helvetica,sans-Serif" font-size="11.00">Cronômetro</text>
</g>
<!-- Freelancer&#45;&gt;UC07 -->
<g id="edge7" class="edge">
<title>Freelancer&#45;&gt;UC07</title>
<path fill="none" stroke="#4b6070" d="M162.2,-236.48C172.33,-193.98 195.47,-120.96 241.5,-77 251.71,-67.25 264.71,-59.91 277.85,-54.42"/>
<polygon fill="#4b6070" stroke="#4b6070" points="279.33,-57.6 287.4,-50.74 276.82,-51.07 279.33,-57.6"/>
</g>
</g>
</svg>
