<?xml version="1.0" encoding="UTF-8" standalone="no"?>
<!DOCTYPE svg PUBLIC "-//W3C//DTD SVG 1.1//EN"
 "http://www.w3.org/Graphics/SVG/1.1/DTD/svg11.dtd">
<!-- Generated by graphviz version 2.42.4 (0)
 -->
<!-- Title: G Pages: 1 -->
<svg width="1085pt" height="298pt"
 viewBox="0.00 0.00 1085.40 297.90" xmlns="http://www.w3.org/2000/svg" xmlns:xlink="http://www.w3.org/1999/xlink">
<g id="graph0" class="graph" transform="scale(1 1) rotate(0) translate(25.2 272.7)">
<title>G</title>
<polygon fill="white" stroke="transparent" points="-25.2,25.2 -25.2,-272.7 1060.2,-272.7 1060.2,25.2 -25.2,25.2"/>
<text text-anchor="middle" x="517.5" y="-225.9" font-family="Helvetica,sans-Serif" font-weight="bold" font-size="22.00">Diagrama de Classes &#45; FreelanceFlow</text>
<!-- Usuario -->
<g id="node1" class="node">
<title>Usuario</title>
<polygon fill="#1f4e79" stroke="transparent" points="1.5,-114.5 1.5,-133.5 114.5,-133.5 114.5,-114.5 1.5,-114.5"/>
<text text-anchor="start" x="27.5" y="-121.3" font-family="Helvetica,sans-Serif" font-weight="bold" font-size="14.00" fill="white">Usuario</text>
<text text-anchor="start" x="3.5" y="-101.3" font-family="Helvetica,sans-Serif" font-size="14.00">+ id: string</text>
<text text-anchor="start" x="3.5" y="-82.3" font-family="Helvetica,sans-Serif" font-size="14.00">+ nome: string</text>
<text text-anchor="start" x="3.5" y="-63.3" font-family="Helvetica,sans-Serif" font-size="14.00">+ email: string</text>
<text text-anchor="start" x="3.5" y="-44.3" font-family="Helvetica,sans-Serif" font-size="14.00">+ senha: string</text>
<text text-anchor="start" x="3.5" y="-25.3" font-family="Helvetica,sans-Serif" font-size="14.00">+ autenticar()</text>
<polygon fill="none" stroke="#1f4e79" points="0,-18.5 0,-134.5 115,-134.5 115,-18.5 0,-18.5"/>
</g>
<!-- Cliente -->
<g id="node2" class="node">
<title>Cliente</title>
<polygon fill="#1f4e79" stroke="transparent" points="213.5,-114.5 213.5,-133.5 340.5,-133.5 340.5,-114.5 213.5,-114.5"/>
<text text-anchor="start" x="249" y="-121.3" font-family="Helvetica,sans-Serif" font-weight="bold" font-size="14.00" fill="white">Cliente</text>
<text text-anchor="start" x="215.5" y="-101.3" font-family="Helvetica,sans-Serif" font-size="14.00">+ id: string</text>
<text text-anchor="start" x="215.5" y="-82.3" font-family="Helvetica,sans-Serif" font-size="14.00">+ nome: string</text>
<text text-anchor="start" x="215.5" y="-63.3" font-family="Helvetica,sans-Serif" font-size="14.00">+ email: string</text>
<text text-anchor="start" x="215.5" y="-44.3" font-family="Helvetica,sans-Serif" font-size="14.00">+ telefone: string</text>
<text text-anchor="start" x="215.5" y="-25.3" font-family="Helvetica,sans-Serif" font-size="14.00">+ cadastrar()</text>
<polygon fill="none" stroke="#1f4e79" points="212,-18.5 212,-134.5 341,-134.5 341,-18.5 212,-18.5"/>
</g>
<!-- Usuario&#45;&gt;Cliente -->
<g id="edge1" class="edge">
<title>Usuario&#45;&gt;Cliente</title>
<path fill="none" stroke="#4b6070" d="M115.23,-76.5C144.87,-76.5 181.23,-76.5 211.83,-76.5"/>
<text text-anchor="middle" x="163.5" y="-79.5" font-family="Helvetica,sans-Serif" font-size="10.00">gerencia</text>
<text text-anchor="middle" x="202.83" y="-68.5" font-family="Helvetica,sans-Serif" font-size="10.00">0..*</text>
<text text-anchor="middle" x="118.73" y="-68.5" font-family="Helvetica,sans-Serif" font-size="10.00">1</text>
</g>
<!-- Projeto -->
<g id="node3" class="node">
<title>Projeto</title>
<polygon fill="#1f4e79" stroke="transparent" points="428.5,-104.5 428.5,-123.5 565.5,-123.5 565.5,-104.5 428.5,-104.5"/>
<text text-anchor="start" x="468" y="-111.3" font-family="Helvetica,sans-Serif" font-weight="bold" font-size="14.00" fill="white">Projeto</text>
<text text-anchor="start" x="430.5" y="-91.3" font-family="Helvetica,sans-Serif" font-size="14.00">+ id: string</text>
<text text-anchor="start" x="430.5" y="-72.3" font-family="Helvetica,sans-Serif" font-size="14.00">+ nome: string</text>
<text text-anchor="start" x="430.5" y="-53.3" font-family="Helvetica,sans-Serif" font-size="14.00">+ descricao: string</text>
<text text-anchor="start" x="430.5" y="-34.3" font-family="Helvetica,sans-Serif" font-size="14.00">+ status: string</text>
<polygon fill="none" stroke="#1f4e79" points="427,-28 427,-125 566,-125 566,-28 427,-28"/>
</g>
<!-- Cliente&#45;&gt;Projeto -->
<g id="edge2" class="edge">
<title>Cliente&#45;&gt;Projeto</title>
<path fill="none" stroke="#4b6070" d="M341.14,-76.5C368.04,-76.5 399.41,-76.5 426.83,-76.5"/>
<text text-anchor="middle" x="384" y="-79.5" font-family="Helvetica,sans-Serif" font-size="10.00">possui</text>
<text text-anchor="middle" x="417.83" y="-68.5" font-family="Helvetica,sans-Serif" font-size="10.00">0..*</text>
<text text-anchor="middle" x="344.64" y="-68.5" font-family="Helvetica,sans-Serif" font-size="10.00">1</text>
</g>
<!-- Atividade -->
<g id="node4" class="node">
<title>Atividade</title>
<polygon fill="#1f4e79" stroke="transparent" points="658.5,-195.5 658.5,-214.5 795.5,-214.5 795.5,-195.5 658.5,-195.5"/>
<text text-anchor="start" x="689.5" y="-202.3" font-family="Helvetica,sans-Serif" font-weight="bold" font-size="14.00" fill="white">Atividade</text>
<text text-anchor="start" x="660.5" y="-182.3" font-family="Helvetica,sans-Serif" font-size="14.00">+ id: string</text>
<text text-anchor="start" x="660.5" y="-163.3" font-family="Helvetica,sans-Serif" font-size="14.00">+ descricao: string</text>
<text text-anchor="start" x="660.5" y="-144.3" font-family="Helvetica,sans-Serif" font-size="14.00">+ status: string</text>
<polygon fill="none" stroke="#1f4e79" points="657,-137.5 657,-215.5 796,-215.5 796,-137.5 657,-137.5"/>
</g>
<!-- Projeto&#45;&gt;Atividade -->
<g id="edge3" class="edge">
<title>Projeto&#45;&gt;Atividade</title>
<path fill="none" stroke="#4b6070" d="M566.22,-106.64C594.93,-119.23 628.22,-133.84 656.92,-146.42"/>
<text text-anchor="middle" x="611.5" y="-135.5" font-family="Helvetica,sans-Serif" font-size="10.00">contém</text>
<text text-anchor="middle" x="647.92" y="-138.42" font-family="Helvetica,sans-Serif" font-size="10.00">0..*</text>
<text text-anchor="middle" x="569.72" y="-98.64" font-family="Helvetica,sans-Serif" font-size="10.00">1</text>
</g>
<!-- Pagamento -->
<g id="node6" class="node">
<title>Pagamento</title>
<polygon fill="#1f4e79" stroke="transparent" points="665.5,-76.5 665.5,-95.5 788.5,-95.5 788.5,-76.5 665.5,-76.5"/>
<text text-anchor="start" x="682" y="-83.3" font-family="Helvetica,sans-Serif" font-weight="bold" font-size="14.00" fill="white">Pagamento</text>
<text text-anchor="start" x="667.5" y="-63.3" font-family="Helvetica,sans-Serif" font-size="14.00">+ id: string</text>
<text text-anchor="start" x="667.5" y="-44.3" font-family="Helvetica,sans-Serif" font-size="14.00">+ valor: number</text>
<text text-anchor="start" x="667.5" y="-25.3" font-family="Helvetica,sans-Serif" font-size="14.00">+ metodo: string</text>
<text text-anchor="start" x="667.5" y="-6.3" font-family="Helvetica,sans-Serif" font-size="14.00">+ status: string</text>
<polygon fill="none" stroke="#1f4e79" points="664,0 664,-97 789,-97 789,0 664,0"/>
</g>
<!-- Projeto&#45;&gt;Pagamento -->
<g id="edge5" class="edge">
<title>Projeto&#45;&gt;Pagamento</title>
<path fill="none" stroke="#4b6070" d="M566.22,-68.06C597.29,-64.24 633.73,-59.77 663.9,-56.06"/>
<text text-anchor="middle" x="611.5" y="-67.5" font-family="Helvetica,sans-Serif" font-size="10.00">tem</text>
<text text-anchor="middle" x="654.9" y="-48.06" font-family="Helvetica,sans-Serif" font-size="10.00">0..*</text>
<text text-anchor="middle" x="569.72" y="-60.06" font-family="Helvetica,sans-Serif" font-size="10.00">1</text>
</g>
<!-- RegistroHora -->
<g id="node5" class="node">
<title>RegistroHora</title>
<polygon fill="#1f4e79" stroke="transparent" points="885.5,-195.5 885.5,-214.5 1034.5,-214.5 1034.5,-195.5 885.5,-195.5"/>
<text text-anchor="start" x="907.5" y="-202.3" font-family="Helvetica,sans-Serif" font-weight="bold" font-size="14.00" fill="white">RegistroHora</text>
<text text-anchor="start" x="887.5" y="-182.3" font-family="Helvetica,sans-Serif" font-size="14.00">+ id: string</text>
<text text-anchor="start" x="887.5" y="-163.3" font-family="Helvetica,sans-Serif" font-size="14.00">+ horas: number</text>
<text text-anchor="start" x="887.5" y="-144.3" font-family="Helvetica,sans-Serif" font-size="14.00">+ dataRegistro: Date</text>
<polygon fill="none" stroke="#1f4e79" points="884,-137.5 884,-215.5 1035,-215.5 1035,-137.5 884,-137.5"/>
</g>
<!-- Atividade&#45;&gt;RegistroHora -->
<g id="edge4" class="edge">
<title>Atividade&#45;&gt;RegistroHora</title>
<path fill="none" stroke="#4b6070" d="M796.18,-176.5C823.71,-176.5 855.51,-176.5 883.63,-176.5"/>
<text text-anchor="middle" x="840" y="-179.5" font-family="Helvetica,sans-Serif" font-size="10.00">recebe</text>
<text text-anchor="middle" x="874.63" y="-168.5" font-family="Helvetica,sans-Serif" font-size="10.00">0..*</text>
<text text-anchor="middle" x="799.68" y="-168.5" font-family="Helvetica,sans-Serif" font-size="10.00">1</text>
</g>
</g>
</svg>
